<?xml version="1.0" encoding="utf-8"?>
<!-- Generator: Adobe Illustrator 25.3.1, SVG Export Plug-In . SVG Version: 6.00 Build 0)  -->
<svg version="1.1" id="Layer_1" xmlns="http://www.w3.org/2000/svg" xmlns:xlink="http://www.w3.org/1999/xlink" x="0px" y="0px"
	 viewBox="0 0 196.5 101.7" style="enable-background:new 0 0 196.5 101.7;" xml:space="preserve">
<style type="text/css">
	.st0{fill:none;}
	.st1{enable-background:new    ;}
	.st2{fill:#EEEDB1;}
	.st3{fill:#F15A2B;}
	.st4{fill:#DAD423;}
	.st5{fill:#7C519B;}
</style>
<g>
	<g>
		<g>
			<g>
				<rect x="2.3" class="st0" width="194.2" height="84.99"/>
			</g>
			<g class="st1">
				<path class="st2" d="M5.95,36.34V2.02h7.15c5.33,0,9.1,0.25,11.31,0.75s4.15,1.34,5.82,2.51c2.17,1.52,3.82,3.46,4.95,5.82
					s1.69,5.07,1.69,8.1s-0.56,5.73-1.69,8.1s-2.77,4.31-4.95,5.82c-1.66,1.16-3.55,1.98-5.67,2.47s-5.42,0.74-9.89,0.74H13.1H5.95z
					 M15.21,28.65h1.57c3.67,0,6.35-0.75,8.04-2.26s2.53-3.9,2.53-7.18s-0.84-5.69-2.53-7.22s-4.37-2.3-8.04-2.3h-1.57V28.65z"/>
				<path class="st2" d="M42.73,36.34V2.02h21.02v7.52H51.84v5.95h11.23v7.36H51.84v5.79h11.91v7.69H42.73z"/>
				<path class="st2" d="M71.46,25.25c1.39,1.58,2.76,2.76,4.11,3.54s2.7,1.17,4.04,1.17c1.25,0,2.28-0.34,3.08-1.01
					s1.21-1.52,1.21-2.55c0-1.14-0.35-2.02-1.04-2.64s-2.27-1.25-4.72-1.91c-3.36-0.91-5.73-2.09-7.12-3.54s-2.09-3.45-2.09-5.98
					c0-3.28,1.1-5.96,3.29-8.03s5.04-3.11,8.54-3.11c1.89,0,3.68,0.25,5.38,0.76s3.3,1.28,4.82,2.31L88.03,11
					c-1.06-0.91-2.15-1.59-3.27-2.05s-2.22-0.69-3.32-0.69c-1.12,0-2.04,0.27-2.74,0.81s-1.05,1.23-1.05,2.07
					c0,0.86,0.31,1.55,0.93,2.06s1.81,1.01,3.57,1.48l0.42,0.12c3.81,1.03,6.32,2.16,7.52,3.4c0.81,0.84,1.43,1.86,1.85,3.04
					s0.63,2.49,0.63,3.93c0,3.64-1.2,6.57-3.59,8.78s-5.58,3.32-9.56,3.32c-2.39,0-4.57-0.41-6.53-1.22s-3.85-2.09-5.66-3.82
					L71.46,25.25z"/>
				<path class="st2" d="M98.06,36.34V2.02h9.45v34.31H98.06z"/>
				<path class="st2" d="M131.37,23.7v-7.2h18.38c0.02,0.23,0.03,0.49,0.04,0.77s0.01,0.7,0.01,1.24c0,5.91-1.56,10.49-4.68,13.75
					s-7.5,4.89-13.16,4.89c-2.78,0-5.25-0.42-7.42-1.25s-4.1-2.11-5.8-3.83c-1.62-1.64-2.89-3.58-3.79-5.82s-1.35-4.59-1.35-7.04
					c0-2.56,0.44-4.92,1.31-7.07s2.18-4.08,3.91-5.8c1.72-1.67,3.69-2.94,5.92-3.8s4.63-1.29,7.21-1.29c3.36,0,6.33,0.66,8.92,1.99
					s4.76,3.3,6.53,5.93l-8.11,3.89c-0.97-1.33-2.06-2.32-3.27-2.96s-2.57-0.97-4.07-0.97c-2.8,0-5,0.93-6.61,2.8
					s-2.41,4.42-2.41,7.65c0,3.27,0.8,5.84,2.41,7.71s3.81,2.81,6.61,2.81c2.38,0,4.36-0.58,5.94-1.75s2.51-2.71,2.78-4.65H131.37z"
					/>
				<path class="st2" d="M155.51,36.34V2.02h9.02l12.96,17.65c0.25,0.36,0.66,1.08,1.23,2.17s1.2,2.38,1.89,3.88
					c-0.19-1.42-0.32-2.69-0.41-3.8s-0.13-2.09-0.13-2.95V2.02h8.98v34.31h-8.98l-12.96-17.72c-0.27-0.36-0.68-1.08-1.25-2.17
					s-1.19-2.36-1.86-3.83c0.19,1.44,0.32,2.71,0.41,3.82s0.13,2.09,0.13,2.95v16.95H155.51z"/>
			</g>
			<g class="st1">
				<path class="st2" d="M1.92,81.94l11.84-34.31h11.72l11.86,34.31h-9.3l-1.73-6.14H13.01l-1.78,6.14H1.92z M15.02,69.12h9.3
					l-3.49-11.32c-0.11-0.34-0.26-0.9-0.45-1.66s-0.43-1.75-0.73-2.95c-0.2,0.84-0.4,1.65-0.6,2.41s-0.39,1.5-0.6,2.2L15.02,69.12z"
					/>
				<path class="st2" d="M64.64,48.96v10.22c-1.28-1.42-2.56-2.46-3.83-3.13s-2.64-1-4.09-1c-2.69,0-4.86,0.92-6.53,2.75
					s-2.5,4.23-2.5,7.18c0,2.75,0.85,5.03,2.54,6.84s3.86,2.72,6.48,2.72c1.45,0,2.82-0.33,4.09-1s2.55-1.71,3.83-3.15v10.24
					c-1.48,0.72-2.96,1.26-4.43,1.62s-2.95,0.54-4.45,0.54c-1.88,0-3.61-0.22-5.19-0.67s-3.04-1.12-4.37-2.03
					c-2.56-1.72-4.52-3.88-5.86-6.49s-2.02-5.55-2.02-8.81c0-2.62,0.43-5.01,1.28-7.16s2.14-4.1,3.86-5.85
					c1.62-1.67,3.46-2.92,5.5-3.75s4.31-1.24,6.81-1.24c1.5,0,2.98,0.18,4.45,0.54S63.16,48.24,64.64,48.96z"/>
				<path class="st2" d="M74.86,81.94v-26.2h-7.69v-8.11H91.9v8.11h-7.69v26.2H74.86z"/>
			</g>
		</g>
	</g>
	<g>
		<polygon class="st3" points="145.24,60.89 133.67,84.26 159.69,82.6 		"/>
	</g>
	<g>
		<circle class="st4" cx="120.89" cy="65.33" r="12.48"/>
	</g>
	<g>
		
			<rect x="160.63" y="49.6" transform="matrix(0.3225 -0.9466 0.9466 0.3225 58.8418 203.987)" class="st5" width="22.58" height="22.58"/>
	</g>
	<g>
		<rect y="94.77" class="st2" width="193.35" height="6.93"/>
	</g>
</g>
</svg>
